<?xml version="1.0" encoding="utf-8"?>
<!-- Generator: Adobe Illustrator 16.0.0, SVG Export Plug-In . SVG Version: 6.00 Build 0)  -->
<!DOCTYPE svg PUBLIC "-//W3C//DTD SVG 1.1//EN" "http://www.w3.org/Graphics/SVG/1.1/DTD/svg11.dtd">
<svg version="1.1" id="文字" xmlns="http://www.w3.org/2000/svg" xmlns:xlink="http://www.w3.org/1999/xlink" x="0px" y="0px"
	 width="850.394px" height="195.591px" viewBox="0 0 850.394 195.591" enable-background="new 0 0 850.394 195.591"
	 xml:space="preserve">
<g>
	<path fill-rule="evenodd" clip-rule="evenodd" fill="#043C82" d="M688.209,70.216c0.036-1.476-0.191-3.022,0.994-4.23
		c6.055,0.026,11.404-2.051,16.285-5.508c0.309-0.012,0.578-0.118,0.807-0.31c0.666-0.485,1.333-0.942,1.979-1.428
		c5.662-3.269,5.085-8.5,4.297-13.799c-0.125-3.989-0.868-7.874-1.812-11.751c0.438-5.072,3.181-0.774,4.76-1.158
		c3.724,2.408,8.179,3.915,10.267,8.307c-0.835,7.511,1.993,12.613,9.62,14.471c0.831,0.812,1.63,1.664,2.505,2.454
		c4.295,3.775,4.301,3.771,0.294,7.575c-3.066,1.004-5.234,3.202-7.419,5.422c-0.088,0.288-0.17,0.576-0.271,0.864l-0.019-0.268
		c-3.936,1.769-5.144,5.229-4.029,8.868c1.111,3.58,4.58,1.393,7.05,1.531c0.883,0.061,1.776-0.176,2.661-0.293
		c5.34-0.044,10.453-1.339,15.49-2.926c3.675-1.152,5.375-3.467,3.793-7.639c-0.885-2.323-2.293-4.598-2.021-7.283
		c-0.424-3.808,1.277-5.243,5.123-5.421c5.332-0.233,24.987-9.503,29.012-13.133c0.994-0.896,2.301-0.804,3.458-0.538
		c1.761,0.348,3.466,0.967,5.193,1.471c6.314,3.737,13.384,6.592,16.729,13.882c-0.382,1.878-0.759,3.725-1.141,5.602
		c-2.728,6.358-7.954,11.077-11.104,17.162c-0.48,1.216-2.065,1.805-1.884,3.388c-1.263-0.074-1.792,0.8-2.374,1.716
		c-1.604,2.521-3.457,4.91-4.879,7.522c-1.746,3.247-3.283,3.994-6.126,0.924c-2.196-2.376-4.381-4.901-7.355-6.449
		c-1.545-3.137-5.461-6.506,0.864-8.872c2.679-0.787,5.499-1.242,7.459-3.52c0.277-0.303,0.555-0.606,0.831-0.909
		c0.271-0.344,0.539-0.687,0.806-1.029l0.021-0.027c0.847-0.274,1.061-0.936,1.092-1.739c2.102-3.024,1.713-6.818,3.028-10.077
		c1.229-2.986-0.338-3.347-2.433-2.495c-3.731,1.528-7.296,3.421-10.941,5.166l0.064-0.127c-1.445,0.325-2.895,0.634-3.846,1.941
		c-4.987,0.919-8.621,4.005-11.956,7.518c-1.058,1.118-1.651,2.68-1.34,4.182c1.719,8.41,1.877,17.1,4.336,25.343
		c1.835,6.246,4.318,6.69,10.063,3.738c7.282-3.737,13.49-10.623,22.948-8.688c2.451,2.355,6.193,2.748,8.38,5.489
		c0.182,0.845,0.376,1.662,0.549,2.479c-1.785,8.686-3.593,17.365-5.336,26.032c-0.552,2.738,0.438,5.016,2.349,6.967
		c3.899,3.984,7.993,7.729,12.851,10.555l0.031,0.025c0.364,0.866,1.065,1.291,1.954,1.481c4.473,3.435,8.955,6.873,13.427,10.294
		c1.405,1.319,2.843,2.629,4.218,3.994c2.262,2.276,5.461,3.85,5.797,7.598c-0.325,0.088-0.659,0.178-0.992,0.266
		c-8.979-1.994-18.283-1.994-27.191-4.42c-5.684-2.256-11.36-4.511-17.041-6.793l0.074,0.09c-0.282-1.625-1.908-0.842-2.852-1.505
		c-3.252-2.261-6.775-4.843-10.189,0.209c-0.901,1.323-2.977,1.202-4.611,1.171c-2.84-0.103-5.668-0.348-8.504-0.486
		c-3.002-0.118-4.599,1.07-3.807,4.308c0.029,0.617,0.051,1.235,0.081,1.854c0.003,0.886,0.007,1.771,0.01,2.656
		c-0.826,5.354-1.776,10.698-4.633,15.442c-3.105,0.91-3.63-2.474-5.646-3.395c-4.652-6.826-4.168-14.758-4.362-22.379
		c-0.432-16.142-0.348-32.299-0.604-48.446c-0.093-5.586-0.522-11.168-0.906-16.716c-0.172-2.713-1.265-3.227-4.163-2.507
		c-9.263,2.34-10.834,10.293-13.488,17.493c-0.516,1.389,0.134,2.637,1.474,3.447c2.726,1.633,3.735,4.216,3.918,7.257
		c-0.318,0.747-0.638,1.494-0.957,2.27c-0.269,0.148-0.538,0.327-0.807,0.476c-1.019-0.127-1.97-0.045-2.73,0.758
		c-1.945,0.223-5.93,3.422-6.438,3.931c-1.751,1.709-5.088,3.223-4.262,5.66c0.963,2.848,4.546,1.788,7.113,1.903
		c0.594,0.058,3.589,0.28,4.505,0.307c2.842,1.576,6.679,2.542,4.446,7.211c-2.448,2.094-4.876,4.187-7.32,6.28
		c0,0-1.465,0.809-1.836,0.998c-2.937,0.757-3.909,2.691-3.544,5.631c0.245,2.036,0.157,4.113,0.23,6.187
		c-0.647,9.062,0.479,18.194-1.427,27.182c-0.666,0.011-1.324,0.022-1.97,0.034c-5.473-5.304-8.691-11.545-8.482-19.365
		c0.062-2.036,0.585-4.225-0.832-6.092c-1.635-2.719-3.219-2.805-4.699,0.137c-1.072,1.271-2.271,2.311-3.849,3.001
		c-3.768,1.625-7.063,3.985-9.811,7.065c-2.677,2.233-5.013,1.728-7.576-0.468c-3.243-2.74-5.517-5.948-6.271-10.158
		c-0.354-1.904-0.263-3.674,2.143-4.208c5.343,0.05,9.555-2.612,13.636-5.604c0.558-0.307,1.115-0.614,1.675-0.922
		c0.766-0.26,1.631-0.412,1.705-1.451c3.289-1.792,6.518-3.693,9.874-5.325c2.084-0.979,2.148-2.652,2.151-4.439
		c0.002-1.393-0.151-2.838-1.395-3.622c-1.017-0.648-2.087-0.027-2.749,0.825c-3.011,3.942-6.67,3.135-10.472,1.589
		c-0.922-0.846-1.843-1.691-2.776-2.536c-0.462-0.774-0.956-1.513-1.403-2.267c-2.697-4.486-2.273-5.662,2.603-7.488
		c0.678-0.279,1.36-0.563,2.056-0.832c1.096-0.314,2.191-0.604,3.289-0.916c1.828-0.647,5.073-0.382,4.324-3.193
		c-0.652-2.545-0.648-5.472-2.533-7.675c-0.625-4.259-2.654-4.798-6.115-2.523c-7.608,5.029-15.331,9.918-23.003,14.854
		c-0.536-0.059-1.071-0.127-1.607-0.195c-0.364-0.266-0.709-0.563-1.086-0.794c-8.36-5.234-8.803-8.104-2.301-14.854
		c0.087-0.086,0.056-0.288,0.084-0.439c4.784-1.337,8.886-4.063,13.149-6.475c3.221-1.729,20.889-12.086,26.371-15.766
		c0.514-0.299,1.072-0.539,1.553-0.905c3.82-2.917,4.372-5.446,2.121-9.215c-2.472-4.14-5.161-0.979-7.724-0.183
		c-0.962,0.303-1.786,1.039-2.669,1.582c-1.715,0.654-3.426,1.311-5.137,1.967c-2.771,0.367-4.439-1.104-5.881-3.271
		C691.036,77.467,689.917,73.717,688.209,70.216z M765.235,145.795c-0.065,0.097-0.194,0.207-0.183,0.258
		c0.042,0.215,0.149,0.388,0.215,0.565c0.344,6.451,1.715,7.428,7.764,5.254c1.525-0.544,2.988-1.385,4.334-2.317
		c2.574-1.778,3.285-3.609,1.36-6.767c-3.137-5.123-8.005-8.994-10.402-14.623c-0.186-0.434-0.958-0.948-1.361-0.882
		c-1.281,0.172-1.453,1.353-1.608,2.361C764.613,135.038,764.138,140.411,765.235,145.795z M789.746,122.275
		c-0.002-6.658-0.455-7.31-4.919-6.5c-2.881,0.511-7.213,0.004-7.981,2.887c-0.814,3.104,3.133,4.988,5.506,6.906
		c1.687,1.341,3.601,3.846,5.686,2.872C790.342,127.33,789.495,124.201,789.746,122.275z M716.916,109.048
		c0.385,2.196,0.789,4.713,1.271,7.226c0.338,1.715,1.359,2.06,2.408,0.658c2.512-3.326,3.969-7.033,3.222-11.325
		c-0.282-1.641-1.015-2.881-2.902-2.8c-1.609,0.04-2.991,0.762-3.515,2.318C717.021,106.258,717.093,107.495,716.916,109.048z"/>
	<path fill-rule="evenodd" clip-rule="evenodd" fill="#043C82" d="M591.51,69.908c9.185-2.238,18.399-4.345,27.541-6.725
		c3.292-0.851,5.932-0.496,8.859,1.366c7.475,4.804,14.825,9.725,21.273,15.839c2.147,3.307,2.576,7.018,2.639,10.824
		c-2.175,15.376-5,30.719-4.152,46.396c-0.803,3.215-0.702,6.481-0.799,9.757c0.002,0.381,0.002,0.732,0.004,1.113
		c-0.077,4.477-0.171,8.981-0.258,13.457c-0.683,3.689-0.842,7.436-1.585,11.162c-0.746,3.605-2.531,6.372-4.902,8.936
		c-7.911,8.527-13.113,7.578-17.581-3.133c-3.535-8.42-4.364-8.965-13.379-8.959c-7.746,0.004-15.324,1.188-22.817,2.982
		c-10.389,2.483-20.092,1.447-28.765-5.283c0,0.001-0.133-0.279-0.133-0.279l-0.309,0.054c-0.459-0.442-0.944-0.914-1.402-1.356
		c-0.581-1.017-1.346-1.843-2.44-2.311c-5.313-5.744-8.122-12.113-6.728-20.316c0.471-2.856,1.443-5.682,1.479-8.627
		c0.596-3.632,1.232-7.262,0.94-10.98c1.531-10.101-1.123-18.392-10.395-23.758c0,0,0.071,0.169,0.07,0.168
		c-0.004-0.757-0.282-1.331-1.07-1.539c-0.39-0.671-0.769-1.341-1.14-1.982c-0.72-1.863-0.663-3.689,0.248-5.442
		c8.68-0.407,15.478-5.053,22.256-9.78C569.313,76.223,580.521,73.388,591.51,69.908z M605.62,79.479
		c-0.794-0.167-19.44,6.913-23.098,8.649c-4.246,2.026-7.584,5.061-9.102,9.607c-1.566,4.733-2.856,9.547-3.296,14.541
		c-0.517,5.78,0.428,6.601,5.883,5.211c7.46-1.926,14.904-3.827,22.349-5.744c1.809-0.176,3.595-0.34,5.396-0.533
		c1.388,0.643,2.788,1.286,4.188,1.928c0.659,1.776,2.149,3.217,2.273,5.255c-1.763,7.344-7.346,10.9-13.621,13.743
		c-3.631,1.498-12.479,4.383-12.817,5.3l0.075-0.055c-10.623,2.631-11.229,6.423-10.899,16.496c0.089,2.51,1.555,3.384,3.993,2.887
		c4.7-0.947,30.243-7.285,38.695-7.571c5.577,0.263,5.581,0.262,5.463-5.44c-0.025-1.175-0.066-25.957-0.195-26.238
		c-0.007-3.014-0.55-14.553-0.916-17.294c0.114-3.05-0.629-12.584-0.651-13.478C619.168,78.687,614.92,76.458,605.62,79.479z"/>
	<path fill-rule="evenodd" clip-rule="evenodd" fill="#043C82" d="M479.179,119.604c1.574-8.76,2.906-17.55,1.304-26.502
		c-0.306-1.708-0.689-3.789,1.197-4.98c1.985-1.241,3.498,0.355,4.828,1.42c8.303,6.472,14.995,14.402,20.321,23.479
		c-0.382,1.31-0.76,2.593-1.123,3.901c-4.607,15.818-9.21,31.624-20.142,44.628c-1.603,1.907-3.079,4.096-3.524,6.725
		c0,0,0.086-0.084,0.087-0.083c-1.2,1.169-2.629,1.797-4.357,1.645c-2.599-1.238-3.538-3.855-4.998-6.021
		c-0.282-0.788-0.522-1.595-1.414-1.926l0.076,0.058c0.031-7.039-1.978-9.532-9.088-10.723c-3.01-0.494-6.148-0.135-9.092-1.111
		c-2.69-1.03-5.441-1.021-8.25-0.619c-0.901-0.007-1.799-0.013-2.677-0.016c-0.303,0.002-0.606,0.003-0.91,0.003
		c-1.505,0.155-3.009,0.304-4.513,0.479c-0.324,0.05-0.623,0.098-0.949,0.119c-10.613,1.958-33.496,11.625-35.031,12.637
		c-6.175,4.029-10.927,9.431-15.075,15.426c-2.008,2.875-4.265,3.433-7.263,1.229c-1.096-0.797-4.878-2.217-5.35-2.521
		c-10.12-6.591-11.89-14.691-5.437-25.246c1.015-1.654,1.146-3.436,0.82-5.233c-1.033-5.614-2.28-11.193-5.295-16.185
		c-1.246-4.591-5.025-7.78-6.663-12.136c-1.001-2.662,1.085-7.063,3.927-8.212c3.345-1.353,2.129,2.467,3.586,3.266
		c0.532,2.046,1.599,3.648,3.621,4.485c4.473,3.682,10.385,3.926,15.379,6.37c3.667,1.938,5.437,5.306,6.658,9.057
		c-0.387,9.834,0.924,10.786,10.021,7.403c1.121-0.433,2.228-0.871,3.356-1.307c2.764-0.956,5.541-1.925,8.319-2.881
		c0.723-0.224,1.449-0.422,2.167-0.646c8.233-2.646,8.232-2.646,6.644-10.83c-0.924-7.536-1.846-15.097-2.756-22.659
		c-1.462-13.685-2.103-27.463-5.557-40.848c0.199-0.768,0.033-1.403-0.5-1.962c0.291-2.228,1.432-2.726,3.486-1.966
		c8.189,3.094,16.641,5.584,24.132,10.272c2.626,1.649,5.626,3.26,5.077,7.273c-2.992,3.771-3.043,8.228-2.834,12.722
		c-0.631,7.507-1.262,15.013-1.894,22.52c-0.829,2.241-1.908,4.446-2.44,6.762c-2.353,10.137,1.246,14.366,11.468,13.448
		c7.055-0.635,14.051-1.727,21.133-0.358c0.933,0.428,1.941,0.771,2.848,1.27c2.504,1.403,4.123,1.468,4.47-2.112
		c0.129-1.22,1.078-2.393,0.973-3.794C479.176,123.588,478.639,121.502,479.179,119.604z"/>
	<path fill-rule="evenodd" clip-rule="evenodd" fill="#043C82" d="M266.302,7.494c4.517,0.195,8.935,0.587,11.956,4.62
		c0.719,0.969,1.787,0.905,2.828,1.083c6.704,1.022,12.779,7.287,14.042,14.034c0.444,2.361-1.239,2.299-2.438,2.961
		c-0.28-0.126-0.553-0.114-0.825,0.025c-0.981-0.473-1.941-0.59-2.852,0.155c-1.528,0.051-11.617,3.516-13.102,4.189
		c-2.765,1.306-7.878,2.343-7.34,4.686c0.795,3.428,5.307,4.799,9.261,4.996c2.449,1.076,5.043,0.689,7.572,0.642
		c12.505-0.353,24.938-1.729,37.465-1.981c9.315-0.158,16.123,3.684,22.069,10.19c2.216,2.437,3.672,5.512,6.485,7.38l-0.017-0.108
		c0.017,0.316,0.033,0.632,0.049,0.948c-0.13,0.208-0.185,0.434-0.149,0.681c-2.397,1.994-5.096,1.114-7.688,0.692
		c-6.407-1.074-21.719-4.817-23.149-5.082c-5.804-0.979-31.763-3.407-38.693-1.825c-0.025,1.49-0.088,2.959-0.069,4.442
		c0.079,6.455,0.592,6.991,7.083,7.539c0.975,0.915,2.238,0.653,3.391,0.798c7.986,1.117,15.844,2.645,23.108,6.356
		c3.899,2.629,4.877,6.148,3.596,10.613c-1.08,3.783-2.26,7.529-4.079,10.989c-3.204,6.14-6.685,12.122-10.058,18.171
		c-2.605,3.313-5.209,6.595-7.812,9.907c-2.018,0.135-2.859-1.633-4.219-2.563c-0.247-1.962-2.064-2.562-3.357-3.276
		c-2.776-1.51-7.368,0.072-8.34,2.495c-1.235,3.084,0.462,5.859,4.4,7.045c1.437,0.442,2.957,0.603,4.435,0.891
		c2.178,1.869,4.387,3.749,3.395,7.135c-1.158,2.606-3.121,4.541-5.231,6.383c-3.262,1.874-7.906,1.372-9.748,5.679
		c-2.544,6.181-1.694,8.644,3.175,9.241c1.227,0.747,5.675,0.517,6.566,0.564c4.629,0.126,9.277,0.519,13.884,0.267
		c5.645-0.309,10.942-0.353,13.97,5.599l-0.045-0.068c0.257,2.227,1.733,3.781,3.034,5.42c2.897,7.765,2.897,7.765-1.902,11.491
		c-3.25,0.013-6.5,0.027-9.754,0.042c0,0-0.022-0.019-0.022-0.018c-14.17-5.749-28.381-11.269-43.871-4.664
		c-7.827,2.026-14.778,6.013-21.78,9.819c-2.603,1.429-4.519,1.425-6.973-0.285c-4.276-2.933-14.277-9.293-14.553-10.202
		c2.784-1.05,5.783-1.617,8.209-3.518c10.248-2.599,31.715-10.448,32.574-10.57c3.108-0.5,4.581-2.169,4.631-5.421
		c0.068-3.702-2.605-4.267-5.108-4.874c-1.543-0.377-12.264-0.142-15.741-1.714c-1.466-0.655-3.475-1.088-3.176-3.172
		c0.248-1.738,2.287-1.64,3.589-2.226c1.615-0.71,9.387-3.146,11.354-4.41c1.349-0.505,4.256-2.639,4.256-2.639
		c3.691-1.964,2.82-5.488,2.93-8.626c0.053-1.584,0.598-3.678-1.208-4.464c-1.767-0.762-3.455,0.194-4.719,1.655
		c-3.275,0.281-4.68,4.919-8.604,3.694c-2.089-1.483-3.755-3.377-4.95-5.628c-1.889-3.571-3.713-7.152-5.568-10.746
		c-0.757-3.324-1.536-6.663-2.281-10.003c-0.539-2.423-0.629-5.075-3.197-6.521l-0.083,0.16c0.256-0.959-0.333-1.456-1.019-1.889
		l0.072,0.063c-0.631-0.629-1.267-1.259-1.892-1.888l0.02,0.152c-0.33-0.363-0.665-0.728-0.995-1.092
		c-0.645-2.605-4.727-4.476-1.649-7.853c4.574-2.619,10.423-2.431,14.347-6.492c0.099-0.105,0.283-0.099,0.415-0.146
		c5.876-3.13,12.674-3.443,18.645-6.286c1.024-0.25,1.908-0.693,2.435-1.676c0.258-0.188,0.363-0.444,0.301-0.77
		c2.03-2.005,1.723-4.622,1.725-7.083c0.004-4.423-0.572-4.736-5.013-3.122c-1.021,0.201-19.416,6.12-26.959,10.102
		c-5.234,2.781-11.137,4.993-15.094,9.889l-0.217,0.101l0.056,0.221c-0.271,0.178-0.54,0.385-0.811,0.563
		c-6.357,2.005-12.244-0.483-18.248-1.904c-1.105-0.942-2.313-1.718-3.789-1.92c-1.139-1.994-5.426-2.233-3.353-6.021
		c1.187-0.418,2.388-0.822,3.218-1.857c0,0,0.32,0.029,0.32,0.028c3.957-1.522,7.906-3.075,11.863-4.628
		c6.386-2.078,12.769-4.186,19.159-6.294l-0.019,0.035c2.05-0.281,4.15-0.37,6.136-0.883c7.702-2.007,26.478-5.399,28.018-5.615
		c3.945-0.57,4.958-3.602,4.698-7.036c-0.279-3.683-2.849-4.843-6.089-4.264c-4.998,0.894-9.934,2.103-14.896,3.166
		c-1.127,0.037-2.251,0.073-3.382,0.11c-2.645-0.094-5.292-0.187-7.938-0.258c-0.814-0.849-2.387-0.286-2.923-1.625
		c2.03-0.502,3.878-1.376,5.493-2.709c7.037-3.656,13.399-8.317,19.818-12.908c5.617-4.018,9.03-8.97,8.272-16.17
		C264.524,8.255,265.411,7.875,266.302,7.494z M288.208,76.111c-1.973,0.401-4.84-0.522-6.108,2.152
		c-0.882,1.852-0.912,4.187,0.279,6.061c1.827,2.842,4.982,3.027,7.94,3.305c2.048,0.204,4.578,0.66,5.563-1.732
		c0.968-2.36,1.001-5.02-0.49-7.322C293.764,76.028,290.989,76.474,288.208,76.111z M287.683,97.19c-5.212,0-6.16,0.854-5.97,5.882
		c0.078,1.952-1.229,4.954,2.25,5.374c3.352,0.404,9.659-4.817,9.509-7.771C293.258,96.498,289.716,97.744,287.683,97.19z
		 M257.282,92.758c4.224-0.047,8.441-3.721,8.248-7.046c-0.187-3.204-2.812-3.143-4.971-3.229c-3.918-0.126-7.126,3.156-7.306,7.018
		C253.101,92.759,255.628,92.299,257.282,92.758z M264.386,106.539c-0.133-1.224,0.04-2.876-2.22-2.891
		c-3.167-0.021-8.126,4.543-7.979,7.471c0.118,2.321,1.414,3.539,3.741,3.605C261.211,114.818,264.427,110.848,264.386,106.539z"/>
	<g>
		<path fill-rule="evenodd" clip-rule="evenodd" fill="#043C82" d="M156.527,173.712c-7.444-2.471-14.438-6.135-20.307-11.132
			c-5.638-4.787-10.646-10.506-14.909-16.705c-0.935-1.347-1.907-2.69-2.861-4.021c-1.97-4.615-4.35-9.011-7.141-13.165
			c-5.896-13.488-12.011-26.851-19.274-39.668c-1.537-2.698-5.895-7.703-6.151-7.858c-1.606-4.45-3.075-8.886-1.773-13.728
			c0.851-3.164,2.292-4.014,4.955-1.665c1.452,1.293,2.972,2.474,4.469,3.711c1.623,1.811,3.246,3.621,4.871,5.402l-0.018-0.014
			c0.941,1.458,1.725,3.074,3.421,3.861c0,0-0.047,0-0.045-0.001c4.83,7.444,9.354,15.152,15.992,21.21
			c15.05,13.796,31.585,25.632,48.189,37.436c9.788,6.929,20.018,13.361,28.563,21.944c0.868,1.652,1.543,2.974-0.451,4.634
			c-1.567,1.328-2.621,3.064-1.751,5.88c1.087,3.553-3.195,3.006-4.905,4.525C177.075,175.886,166.793,175.211,156.527,173.712z"/>
		<path fill-rule="evenodd" clip-rule="evenodd" fill="#043C82" d="M7.705,162.37c4.382-1.903,7.929-4.862,10.974-8.502
			c2.615-1.651,4.64-3.909,6.49-6.37c5.884-5.799,10.692-12.403,14.169-19.909c3.383-6.702,3.383-6.702-1.806-11.783
			c-3.265-3.184-3.151-3.83,0.948-5.764c9.22-4.306,22.303-0.873,28.168,7.326c1.417,1.973,1.552,3.883,0.277,5.882
			c-4.23,6.609-8.416,13.255-12.774,19.773c-3.778,5.66-10.123,8.498-14.861,12.958c-6.383,5.993-13.956,9.326-21.416,13.108
			c-2.414,1.24-5.062,1.925-7.657,0.219C9.846,166.811,5.507,165.778,7.705,162.37z"/>
	</g>
</g>
</svg>
